<?xml version="1.0" encoding="UTF-8"?>
<svg xmlns="http://www.w3.org/2000/svg" viewBox="0 0 256 256" width="256" height="256" fill="none">
  <defs><clipPath id="el"><path d="M-15 0 Q-15 -13 0 -13 Q15 -13 15 0 Q15 12 0 12 Q-15 12 -15 0Z"/></clipPath></defs>
  <g transform="translate(96 122)"><path d="M-15 0 Q-15 -13 0 -13 Q15 -13 15 0 Q15 12 0 12 Q-15 12 -15 0Z" fill="#fffaf6"/>
  <g clip-path="url(#el)">
    <path d="M-20 5 Q0 -17 20 5 L20 -22 L-20 -22Z" fill="#241a27" opacity=".15"/>
    <circle cx="0" cy="0.5" r="10.9" fill="#3e6d9c"/>
    <circle cx="0" cy="0.5" r="10.9" fill="none" stroke="#2e4360" stroke-width="2"/>
    <path d="M-9.4 1.5 Q0 10.9 9.4 1.5 Q0 6.4 -9.4 1.5Z" fill="#a8bdd2" opacity=".85"/>
    <circle cx="0" cy="1.1" r="4.6" fill="#1d1218"/>
    <circle cx="-3.7" cy="-3.4" r="3.3" fill="#ffffff" opacity=".95"/>
    <circle cx="3.7" cy="4.2" r="1.7" fill="#ffffff" opacity=".5"/>
    
  </g>
  <path d="M-15 0 Q-15 -13 0 -13 Q15 -13 15 0 Q15 12 0 12 Q-15 12 -15 0Z" fill="none" stroke="#241a27" stroke-width="2.2" opacity=".5"/>
  <path d="M-16 -1 C-12 -12 -4 -16 3 -15.5 C10 -15 15 -10 16.5 -2 C13 -7.5 8 -11 1 -11.4 C-6 -11.8 -12 -8 -16 -1Z" fill="#241a27"/>
  <path d="M18 -6 l6 -4 M19 -2 l6.5 -1.5" stroke="#241a27" stroke-width="2.4" stroke-linecap="round"/>
  <path d="M-12 9.5 Q0 13 12 9.5" stroke="#241a27" stroke-width="2" opacity=".45" fill="none" stroke-linecap="round"/>
  <path d="M-13 -9 Q0 -17 13 -9" stroke="#241a27" stroke-width="2" opacity=".3" fill="none" stroke-linecap="round"/></g>
  <g transform="translate(160 122) scale(-1 1)"><path d="M-15 0 Q-15 -13 0 -13 Q15 -13 15 0 Q15 12 0 12 Q-15 12 -15 0Z" fill="#fffaf6"/>
  <g clip-path="url(#el)">
    <path d="M-20 5 Q0 -17 20 5 L20 -22 L-20 -22Z" fill="#241a27" opacity=".15"/>
    <circle cx="0" cy="0.5" r="10.9" fill="#3e6d9c"/>
    <circle cx="0" cy="0.5" r="10.9" fill="none" stroke="#2e4360" stroke-width="2"/>
    <path d="M-9.4 1.5 Q0 10.9 9.4 1.5 Q0 6.4 -9.4 1.5Z" fill="#a8bdd2" opacity=".85"/>
    <circle cx="0" cy="1.1" r="4.6" fill="#1d1218"/>
    <circle cx="-3.7" cy="-3.4" r="3.3" fill="#ffffff" opacity=".95"/>
    <circle cx="3.7" cy="4.2" r="1.7" fill="#ffffff" opacity=".5"/>
    
  </g>
  <path d="M-15 0 Q-15 -13 0 -13 Q15 -13 15 0 Q15 12 0 12 Q-15 12 -15 0Z" fill="none" stroke="#241a27" stroke-width="2.2" opacity=".5"/>
  <path d="M-16 -1 C-12 -12 -4 -16 3 -15.5 C10 -15 15 -10 16.5 -2 C13 -7.5 8 -11 1 -11.4 C-6 -11.8 -12 -8 -16 -1Z" fill="#241a27"/>
  <path d="M18 -6 l6 -4 M19 -2 l6.5 -1.5" stroke="#241a27" stroke-width="2.4" stroke-linecap="round"/>
  <path d="M-12 9.5 Q0 13 12 9.5" stroke="#241a27" stroke-width="2" opacity=".45" fill="none" stroke-linecap="round"/>
  <path d="M-13 -9 Q0 -17 13 -9" stroke="#241a27" stroke-width="2" opacity=".3" fill="none" stroke-linecap="round"/></g>
</svg>
