<?xml version="1.0" encoding="UTF-8"?>
<svg xmlns="http://www.w3.org/2000/svg" viewBox="0 0 256 256" width="256" height="256" fill="none">
  <defs>
    <radialGradient id="bl"><stop offset="0" stop-color="#ef938c" stop-opacity=".5"/><stop offset="1" stop-color="#ef938c" stop-opacity="0"/></radialGradient>
    <radialGradient id="hl"><stop offset="0" stop-color="#ffffff" stop-opacity=".12"/><stop offset="1" stop-color="#ffffff" stop-opacity="0"/></radialGradient>
    <clipPath id="fc"><path d="M62 100C60 72 78 55 128 54C178 55 196 72 194 100C196 138 193 160 185 177C176 196 180 186 164 204C168 215 140 230 128 230C116 230 88 215 92 204C76 186 80 196 71 177C63 160 60 138 62 100Z"/></clipPath>
  </defs>
  <!-- 颈 + 下颌投影 -->
  <path d="M97 182 C92 200 92 220 94 236 Q128 244 162 236 C164 220 164 200 159 182Z" fill="#f8d8c7" stroke="#241a27" stroke-width="3"/>
  <path d="M95 198 Q128 222 161 198 L161 210 Q128 234 95 210Z" fill="#cf8c74" opacity=".45"/>
  <!-- 耳 -->
  <ellipse cx="63" cy="140" rx="11" ry="17" fill="#f8d8c7" stroke="#241a27" stroke-width="3"/>
  <ellipse cx="193" cy="140" rx="11" ry="17" fill="#f8d8c7" stroke="#241a27" stroke-width="3"/>
  <path d="M60 133 Q66 139 63 148 M196 133 Q190 139 193 148" stroke="#cf8c74" stroke-width="2.4" stroke-linecap="round" fill="none" opacity=".8"/>
  <!-- 脸 -->
  <path d="M62 100C60 72 78 55 128 54C178 55 196 72 194 100C196 138 193 160 185 177C176 196 180 186 164 204C168 215 140 230 128 230C116 230 88 215 92 204C76 186 80 196 71 177C63 160 60 138 62 100Z" fill="#f8d8c7" stroke="#241a27" stroke-width="4" stroke-linejoin="round"/>
  <!-- 统一左上光源：右侧落影 + 左侧柔光（裁剪在脸内） -->
  <g clip-path="url(#fc)">
    <path d="M179 108 C177 148 169 172 150 198 C142 216 146 228 142 234 L156 244 L262 244 L262 40 L202 40 C196 78 186 94 179 108Z" fill="#e2a58e" opacity=".25"/>
    <path d="M92 220 Q128 236 164 220 Q128 228 92 220Z" fill="#e2a58e" opacity=".35"/>
    <ellipse cx="100" cy="106" rx="48" ry="32" fill="url(#hl)"/>
  </g>
  
  <path d="M98 208 Q128 222 158 208" stroke="#cf8c74" stroke-width="2.6" stroke-linecap="round" opacity=".4" fill="none"/><path d="M104 218 Q128 229 152 218" stroke="#cf8c74" stroke-width="2.2" stroke-linecap="round" opacity=".3" fill="none"/>
</svg>
