<?xml version="1.0" encoding="UTF-8"?>
<svg xmlns="http://www.w3.org/2000/svg" viewBox="0 0 256 256" width="256" height="256" fill="none">
  <defs>
    <radialGradient id="bl"><stop offset="0" stop-color="#e5837b" stop-opacity=".5"/><stop offset="1" stop-color="#e5837b" stop-opacity="0"/></radialGradient>
    <radialGradient id="hl"><stop offset="0" stop-color="#ffffff" stop-opacity=".12"/><stop offset="1" stop-color="#ffffff" stop-opacity="0"/></radialGradient>
    <clipPath id="fc"><path d="M65 100C63 72 81 55 128 54C175 55 193 72 191 100C193 138 190 160 182 177C173 196 180 163 164 181C164 192 140 207 128 207C116 207 92 192 92 181C76 163 83 196 74 177C66 160 63 138 65 100Z"/></clipPath>
  </defs>
  <!-- 颈 + 下颌投影 -->
  <path d="M97 182 C92 200 92 220 94 236 Q128 244 162 236 C164 220 164 200 159 182Z" fill="#efc2a7" stroke="#241a27" stroke-width="3"/>
  <path d="M95 198 Q128 222 161 198 L161 210 Q128 234 95 210Z" fill="#bd7a5e" opacity=".45"/>
  <!-- 耳 -->
  <ellipse cx="66" cy="140" rx="11" ry="17" fill="#efc2a7" stroke="#241a27" stroke-width="3"/>
  <ellipse cx="190" cy="140" rx="11" ry="17" fill="#efc2a7" stroke="#241a27" stroke-width="3"/>
  <path d="M63 133 Q69 139 66 148 M193 133 Q187 139 190 148" stroke="#bd7a5e" stroke-width="2.4" stroke-linecap="round" fill="none" opacity=".8"/>
  <!-- 脸 -->
  <path d="M65 100C63 72 81 55 128 54C175 55 193 72 191 100C193 138 190 160 182 177C173 196 180 163 164 181C164 192 140 207 128 207C116 207 92 192 92 181C76 163 83 196 74 177C66 160 63 138 65 100Z" fill="#efc2a7" stroke="#241a27" stroke-width="4" stroke-linejoin="round"/>
  <!-- 统一左上光源：右侧落影 + 左侧柔光（裁剪在脸内） -->
  <g clip-path="url(#fc)">
    <path d="M176 108 C174 148 166 172 150 175 C138 193 146 205 142 211 L156 221 L262 221 L262 40 L199 40 C193 78 183 94 176 108Z" fill="#d69577" opacity=".25"/>
    <path d="M92 197 Q128 213 164 197 Q128 205 92 197Z" fill="#d69577" opacity=".35"/>
    <ellipse cx="100" cy="106" rx="48" ry="32" fill="url(#hl)"/>
  </g>
  <ellipse cx="95" cy="157" rx="16" ry="8.5" fill="url(#bl)"/>
  <ellipse cx="161" cy="157" rx="16" ry="8.5" fill="url(#bl)"/>
  
</svg>
